<?xml version="1.0" standalone="no"?>
<!DOCTYPE svg PUBLIC "-//W3C//DTD SVG 20010904//EN"
 "http://www.w3.org/TR/2001/REC-SVG-20010904/DTD/svg10.dtd">
<svg version="1.0" xmlns="http://www.w3.org/2000/svg"
 width="582.000000pt" height="582.000000pt" viewBox="0 0 582.000000 582.000000"
 preserveAspectRatio="xMidYMid meet">
<metadata>
Created by potrace 1.14, written by Peter Selinger 2001-2017
</metadata>
<g transform="translate(0.000000,582.000000) scale(0.100000,-0.100000)"
fill="#000000" stroke="none">
<path d="M2178 3455 c-2 -3 -13 -6 -24 -8 -36 -6 -99 -42 -135 -77 -82 -80
-86 -206 -8 -293 43 -50 106 -84 237 -128 139 -47 186 -86 179 -150 -8 -77
-55 -112 -152 -113 -121 -2 -188 48 -194 142 -1 8 -23 12 -77 12 l-75 0 3 -44
c5 -58 49 -126 107 -168 25 -18 47 -32 49 -30 1 1 19 -5 40 -14 22 -10 73 -17
128 -19 211 -7 333 91 322 255 -5 67 -21 102 -65 147 -24 25 -143 93 -161 93
-32 0 -188 66 -213 91 -52 51 -34 139 34 169 32 15 111 20 170 11 21 -3 76
-73 82 -103 l7 -34 70 -1 c50 0 71 4 75 14 9 24 -19 102 -48 136 -16 17 -29
35 -29 38 0 8 -94 59 -122 66 -29 7 -194 14 -200 8z"/>
<path d="M4510 3441 c-122 -46 -192 -131 -224 -272 -20 -85 -15 -297 9 -364
55 -153 157 -232 308 -240 188 -10 320 80 356 243 11 52 8 54 -79 50 l-63 -3
-12 -43 c-24 -80 -64 -114 -147 -125 -41 -5 -128 10 -128 23 0 4 -8 10 -19 13
-20 5 -66 93 -77 147 -4 19 -7 89 -7 155 1 96 5 131 22 175 23 61 59 106 99
122 47 19 133 17 175 -4 38 -19 79 -73 84 -113 7 -44 10 -46 85 -43 78 3 76 1
63 62 -12 58 -36 100 -86 150 -28 28 -54 51 -58 50 -3 0 -22 6 -41 14 -52 23
-204 24 -260 3z"/>
<path d="M715 3437 c-49 -20 -62 -30 -84 -72 -15 -28 -21 -58 -21 -100 -1 -95
-50 -178 -134 -222 -42 -23 -51 -24 -124 -24 -80 1 -123 -17 -159 -67 -38 -52
-42 -111 -11 -171 30 -58 78 -83 166 -88 90 -4 143 -32 195 -100 40 -53 41
-58 45 -146 4 -74 9 -99 28 -129 29 -46 75 -71 128 -70 56 0 71 5 106 30 41
31 62 76 62 133 -1 99 -71 159 -186 159 -104 0 -182 55 -231 162 -36 78 -34
165 6 243 52 103 123 147 245 150 66 1 87 6 112 24 61 43 78 84 73 173 -1 31
-83 124 -99 114 -6 -3 -13 -2 -17 4 -8 13 -62 12 -100 -3z"/>
<path d="M1142 3429 c-60 -30 -86 -71 -89 -138 -4 -106 68 -172 188 -170 185
3 309 -214 225 -396 -59 -128 -202 -196 -339 -160 -135 35 -197 114 -201 255
-3 78 -14 112 -50 143 -43 38 -78 50 -129 44 -117 -14 -181 -132 -128 -236 17
-33 60 -72 84 -77 4 -1 8 -3 10 -4 1 -1 31 -3 68 -5 79 -4 174 -43 185 -77 3
-10 9 -18 14 -18 22 0 50 -88 50 -159 0 -76 12 -106 58 -148 56 -51 154 -51
210 1 37 33 51 67 56 143 4 75 21 121 58 163 26 30 88 75 88 64 0 -3 7 -1 15
6 10 8 42 13 85 12 82 -2 114 8 157 50 30 29 37 46 47 113 5 28 -20 85 -51
118 -32 32 -78 47 -153 47 -37 0 -66 7 -87 20 -18 11 -33 18 -33 15 0 -3 -16
12 -35 32 -52 55 -68 98 -70 184 -3 121 -47 181 -146 194 -33 4 -54 0 -87 -16z"/>
<path d="M2960 3439 c0 -6 -15 -50 -34 -98 -32 -84 -57 -148 -129 -341 -53
-141 -58 -155 -58 -157 0 -2 -15 -39 -33 -83 -19 -44 -32 -80 -30 -80 3 0 -2
-12 -9 -27 -8 -16 -17 -40 -20 -54 l-7 -26 74 1 c68 1 90 7 92 24 2 16 17 68
23 77 3 6 13 30 21 55 l15 45 161 1 c163 2 183 -1 188 -27 2 -8 6 -21 9 -29 3
-8 16 -44 29 -80 l24 -65 77 -1 77 -1 -7 26 c-3 14 -12 38 -20 53 -7 15 -13
29 -12 30 0 2 -5 17 -11 33 -22 61 -52 141 -60 160 -12 28 -160 421 -177 470
-37 105 -36 105 -113 105 -45 0 -70 -4 -70 -11z m121 -310 c22 -63 42 -121 44
-129 2 -8 10 -34 18 -56 l15 -41 -123 -2 -124 -1 9 27 c8 30 16 52 27 81 3 9
7 23 9 29 2 11 33 98 66 186 6 15 12 26 14 24 2 -2 22 -55 45 -118z"/>
<path d="M3539 3449 c-4 -10 -6 -846 -3 -860 4 -14 17 -16 72 -14 37 1 69 3
72 4 3 0 5 75 5 166 l0 165 85 0 86 0 15 -32 c26 -56 131 -252 141 -265 6 -7
7 -13 3 -13 -4 0 -2 -6 4 -13 12 -15 157 -21 166 -8 4 8 -4 25 -70 146 -123
227 -118 216 -98 231 10 7 22 14 26 14 17 0 87 85 98 117 17 51 18 133 2 187
-18 62 -62 109 -132 143 -54 26 -63 27 -263 31 -115 2 -209 3 -209 1z m393
-143 c100 -48 92 -223 -12 -258 -46 -15 -228 -18 -233 -4 -3 10 -1 261 2 277
0 3 47 5 104 4 74 -1 112 -6 139 -19z"/>
<path d="M5100 3012 l0 -438 285 0 c157 0 285 2 286 5 4 24 3 104 -1 110 -3 4
-97 7 -210 7 l-205 -1 -1 130 c0 72 3 132 7 135 4 3 84 5 178 4 116 0 171 3
172 10 7 72 3 106 -11 107 -8 1 -89 2 -180 3 l-165 1 0 120 0 120 208 0 207 0
0 62 0 63 -285 0 -285 0 0 -438z"/>
<path d="M1132 2970 c-95 -58 -105 -184 -19 -254 42 -34 117 -44 155 -20 12 8
22 12 22 9 0 -15 44 42 60 77 16 36 17 46 5 85 -7 23 -11 43 -9 43 7 0 -43 45
-66 61 -34 22 -111 21 -148 -1z"/>
<path d="M1996 2402 c-11 -18 -55 -146 -51 -150 7 -8 25 9 25 24 0 9 11 14 36
14 27 0 37 -5 41 -20 3 -11 11 -20 18 -20 10 0 7 17 -12 63 -14 34 -27 70 -30
80 -6 18 -18 22 -27 9z m29 -69 c5 -20 3 -23 -19 -23 -24 0 -24 2 -14 31 11
32 21 29 33 -8z"/>
<path d="M2199 2408 c-1 -2 -3 -38 -4 -80 l-2 -78 38 0 c46 0 79 30 79 73 0
30 -16 67 -34 79 -10 7 -74 11 -77 6z m75 -34 c33 -33 9 -104 -35 -104 -26 0
-27 1 -25 60 1 55 3 60 23 60 12 0 29 -7 37 -16z"/>
<path d="M2376 2394 c-17 -16 -17 -19 -19 -56 -3 -70 37 -105 96 -85 22 7 27
15 27 43 0 31 -3 34 -30 34 -16 0 -30 -4 -30 -10 0 -5 9 -10 20 -10 26 0 28
-39 3 -41 -52 -4 -63 8 -63 67 0 29 5 44 16 48 28 11 54 6 54 -9 0 -17 16 -20
25 -6 9 16 -25 41 -55 41 -16 0 -36 -7 -44 -16z"/>
<path d="M2542 2398 c-27 -27 -7 -61 51 -86 32 -14 34 -27 8 -42 -26 -13 -27
-13 -50 11 -10 11 -22 16 -25 11 -7 -12 22 -38 51 -44 27 -7 63 17 63 41 0 21
-24 44 -47 47 -23 4 -47 30 -39 43 9 15 53 14 58 0 2 -7 10 -10 17 -8 11 4 10
9 -3 22 -20 20 -67 22 -84 5z"/>
<path d="M2783 2404 c-15 -7 -34 -63 -28 -89 2 -11 4 -26 4 -33 1 -21 62 -42
86 -30 24 13 36 29 28 41 -3 5 -13 0 -24 -11 -19 -21 -57 -20 -65 2 -21 57 -3
106 38 106 18 0 28 -5 28 -15 0 -8 7 -15 16 -15 15 0 15 2 2 23 -15 21 -58 32
-85 21z"/>
<path d="M2938 2388 c-44 -54 -4 -152 56 -141 35 7 56 39 56 85 0 69 -73 105
-112 56z m83 -25 c24 -64 -14 -119 -60 -87 -21 15 -26 64 -9 97 14 28 57 22
69 -10z"/>
<path d="M3100 2329 c0 -60 3 -80 12 -77 8 3 12 19 10 41 -5 49 10 47 33 -3
21 -47 34 -47 50 0 17 50 35 50 35 1 0 -23 5 -41 10 -41 6 0 10 33 10 80 0
100 -16 105 -54 18 l-27 -63 -26 63 c-36 89 -53 83 -53 -19z"/>
<path d="M3317 2403 c-3 -6 -1 -110 2 -146 2 -20 21 7 21 29 0 19 5 24 26 24
57 0 86 50 50 86 -15 14 -92 20 -99 7z m88 -23 c14 -23 -6 -50 -38 -50 -29 0
-32 3 -32 30 -1 27 2 30 31 30 18 0 36 -5 39 -10z"/>
<path d="M3505 2401 c-6 -12 -55 -139 -55 -146 0 -14 20 -2 25 15 5 16 15 20
46 20 22 0 38 -4 35 -8 -8 -13 11 -35 23 -27 8 4 9 11 3 18 -5 7 -20 40 -32
75 -22 60 -32 72 -45 53z m30 -68 c5 -20 3 -23 -19 -23 -24 0 -24 2 -14 31 11
32 21 29 33 -8z"/>
<path d="M3630 2330 c0 -91 17 -109 22 -22 l3 57 35 -57 c47 -78 60 -76 60 12
0 39 0 73 1 77 0 4 -4 9 -10 11 -7 2 -11 -15 -11 -47 0 -28 -4 -51 -9 -51 -5
0 -23 23 -41 50 -18 28 -36 50 -41 50 -5 0 -9 -36 -9 -80z"/>
<path d="M3798 2393 c4 -10 17 -36 28 -58 12 -22 20 -51 18 -63 -3 -16 0 -22
8 -20 7 3 12 16 13 29 0 29 36 109 48 109 5 0 5 5 2 10 -11 18 -21 11 -39 -26
-18 -39 -27 -38 -50 7 -14 28 -39 39 -28 12z"/>
</g>
</svg>
